<svg viewBox="0 0 36 36" xmlns="http://www.w3.org/2000/svg" xmlns:xlink="http://www.w3.org/1999/xlink" width="36.000000" height="36.000000" fill="none">
	<defs>
		<linearGradient id="paint_linear_2" x1="2.50000954" x2="20.9999943" y1="4" y2="23.4999962" gradientUnits="userSpaceOnUse">
			<stop stop-color="rgb(47,69,229)" offset="0" stop-opacity="1" />
			<stop stop-color="rgb(210,204,255)" offset="1" stop-opacity="1" />
		</linearGradient>
		<linearGradient id="paint_linear_3" x1="10.0000048" x2="33.9022064" y1="19.0740719" y2="39.3389893" gradientUnits="userSpaceOnUse">
			<stop stop-color="rgb(139,152,255)" offset="2.28881845e-06" stop-opacity="1" />
			<stop stop-color="rgb(109,117,254)" offset="1" stop-opacity="1" />
		</linearGradient>
	</defs>
	<rect id="Фрейм 1" width="36.000000" height="36.000000" x="0.000000" y="0.000000" fill="rgb(255,255,255)" fill-opacity="0" />
	<path id="Убрать верхний слой" d="M17.9731 8L1.50001 8Q1.54489 7.26997 1.81118 6.63241Q2.12496 5.88113 2.74617 5.25826Q3.37271 4.63041 4.12948 4.31585Q4.88934 4 5.78049 4L12.2062 4C12.7828 4 13.3332 4.10852 13.8575 4.32558C14.382 4.54238 14.8425 4.85366 15.239 5.2594L17.9731 8Z" fill="url(#paint_linear_2)" fill-rule="evenodd" />
	<path id="Убрать верхний слой" d="M17.9821 8L1.5091 8Q1.5 8.14799 1.5 8.29978L1.5 26.7002C1.5 27.8888 1.91842 28.9027 2.75526 29.7417Q3.3818 30.3696 4.13857 30.6841Q4.89843 31 5.78958 31L30.2104 31C31.3962 31 32.4076 30.5806 33.2447 29.7417C34.0816 28.9027 34.5 27.8888 34.5 26.7002L34.5 12.3177C34.5 11.1291 34.0816 10.1154 33.2447 9.27652C32.4076 8.43744 31.3962 8.0179 30.2104 8.0179L18 8.0179L17.9821 8Z" fill="url(#paint_linear_3)" fill-rule="evenodd" />
</svg>
